<?xml version="1.0" encoding="utf-8"?>
<!-- Generator: Adobe Illustrator 18.1.1, SVG Export Plug-In . SVG Version: 6.00 Build 0)  -->
<svg version="1.1" id="Слой_1" xmlns="http://www.w3.org/2000/svg" xmlns:xlink="http://www.w3.org/1999/xlink" x="0px" y="0px"
	 viewBox="0 0 612 792" enable-background="new 0 0 612 792" xml:space="preserve">
<path d="M601.7,332.5l-59.4-20.8l-16.5-40.4l26.9-56.3c3.7-6.7,1.8-14.1-3.7-19l-52.6-52.6c-4.9-4.9-12.9-6.1-19-3.7l-56.3,26.9
	l-40.4-16.5l-20.8-59.4c-2.4-6.7-8.6-11.6-16.5-11.6h-74.1c-7.3,0-13.5,4.9-16.5,11.6L232,150.1l-40.4,16.5l-56.3-26.9
	c-6.7-3.7-14.1-1.8-19,3.7L63.7,196c-4.9,4.9-6.1,12.9-3.7,19l27,56.3l-16.5,40.4l-59.4,20.8c-6.7,2.4-11.6,8.6-11.6,16.5v74.1
	c0,7.3,4.9,13.5,11.6,16.5l59.4,20.8L87,500.8l-26.9,56.3c-3.7,6.7-1.8,14.1,3.7,19l52.6,52.6c4.9,4.9,12.9,6.1,19,3.7l56.3-27.5
	l40.4,16.5l20.8,59.4c2.4,6.7,8.6,11.6,16.5,11.6h75.3c7.3,0,13.5-4.9,16.5-11.6l20.8-59.4l40.4-16.5l56.3,27.5
	c6.7,3.7,14.1,1.8,19-3.7l52.6-52.6c4.9-4.9,6.1-12.9,3.7-19l-27-56.3l16.5-40.4l59.4-20.8c6.7-2.4,11.6-8.6,11.6-16.5V349
	C613.3,341,609,334.9,601.7,332.5z M579.6,410.8l-55.1,19.6c-4.9,1.2-8,4.9-10.4,9.8l-22.6,53.9c-1.8,4.9-1.8,9.8,0.6,13.5
	l25.1,53.2l-35.5,35.5l-53.2-25.1c-4.3-1.8-9.8-1.8-13.5-0.6l-53.9,23.3c-4.9,1.8-8,5.5-9.8,10.4l-19.6,55.1h-50.2L262,604.2
	c-1.2-4.9-4.9-8-9.8-10.4l-53.9-22.6c-4.9-1.8-9.8-1.8-13.5,0.6l-53.2,25.1l-35.5-35.5l25.1-53.2c1.8-4.3,1.8-9.8,0.6-13.5
	l-22.6-53.9c-1.8-4.9-5.5-8-10.4-9.8l-55.1-20.2v-50.2L88.8,341c4.9-1.2,8-4.9,10.4-9.8l22.6-53.9c1.8-4.9,1.8-9.8-0.6-13.5
	l-25-53.1l35.5-35.5l53.2,25.1c4.3,1.8,9.8,1.8,13.5,0.6l53.9-22.6c4.9-1.8,8-5.5,9.8-10.4l19.6-55.1h50.2l19.6,55.1
	c1.2,4.9,4.9,8,9.8,10.4l53.9,22.6c4.9,1.8,9.8,1.8,13.5-0.6l53.2-25.1l35.5,35.5l-25.1,53.2c-1.8,4.3-1.8,9.8-0.6,13.5l22.6,53.9
	c1.8,4.9,5.5,8,10.4,9.8l55.1,19.6v50.1H579.6z"/>
<path d="M427.3,443.8l-60.6-47.1c-1.2-6.1-4.9-12.2-9.8-15.9l14.7-14.7c4.3,0.6,8,1.2,12.2,1.2c20.2,0,41-11,52-30
	c11.6-19.6,10.4-44.7-2.4-63c-1.2-2.4-4.9-3.7-7.3-3.7s-5.5,1.8-6.7,4.3l-13.5,23.3h-16.5l-6.7-14.1l13.5-23.3c1.2-2.4,1.2-5.5,0-8
	c-1.2-2.4-4.3-4.3-6.7-4.9c-23.3-1.8-44.7,9.8-56.3,29.4c-7.3,12.9-9.8,28.2-6.7,42.2L300,345.9l-60-59.4V273c0-3.7-1.8-6.1-4.9-7.3
	l-34.3-17.1c-3.7-1.2-7.3-0.6-9.8,1.2l-17.1,17.1c-2.4,2.4-3.7,6.7-1.2,9.8l17.1,34.3c1.2,2.4,4.3,4.9,7.3,4.9h13.5l60,60
	l-26.3,26.3c-8.6-1.8-18.4-1.8-28.2,0.6c-15.9,4.3-28.2,14.1-36.1,28.2c-11.6,19.6-10.4,44.7,2.4,63c1.2,2.4,4.9,4.3,7.3,3.7
	c2.4,0,5.5-1.8,6.7-4.3l13.5-23.3l16.5-1.2l6.7,14.1l-13.5,23.3c-1.2,2.4-1.2,5.5,0,8c1.2,2.4,4.3,4.3,6.7,4.9c1.2,0,3.7,0,4.9,0
	c20.8,0,41-11.6,52-30c7.3-12.9,9.8-28.2,6.7-42.2l14.7-14.7c4.3,4.9,9.8,8.6,15.9,9.8l47.1,60.6c8,10.4,20.2,16.5,34.3,16.5
	c23.9,0,42.8-19,42.8-42.8C443.2,464.6,437.1,452.4,427.3,443.8z M346.5,285.9c5.5-9.8,14.7-16.5,25.1-19.6l-7.3,12.9
	c-1.2,2.4-1.2,5.5,0,8l11.6,23.9c1.2,3.7,4.9,4.9,8,4.9l26.3-1.2c2.4,0,5.5-1.8,6.7-4.3l7.3-12.9c2.4,11,1.2,22-4.3,31.8
	c-11.6,20.2-37.9,26.9-58.1,15.9C342.2,332.5,334.8,306.8,346.5,285.9z M332.4,337.4c4.9,8.6,12.2,16.5,22,22l0,0l-19,19l-2.4,2.4
	l-22-22L332.4,337.4z M267.5,482.4c-5.5,9.8-14.7,16.5-25.1,19.6l7.3-12.9c1.2-2.4,1.2-5.5,0-8l-11.6-23.9c-1.2-2.4-4.3-4.9-7.3-4.9
	h-0.6l-26.3,1.2c-2.4,0-5.5,1.8-6.7,4.3l-7.3,12.9c-2.4-11-1.2-22,4.3-31.8s14.7-17.1,25.7-19.6c11-2.4,22.6-1.2,31.8,4.3
	C272.4,435.9,279.2,461.6,267.5,482.4z M301.2,412l-19,19c-4.9-8.6-12.2-16.5-22-22l0,0l20.8-20.8l22,22L301.2,412z M219.2,301.9
	c-1.2-1.2-4.3-2.4-6.1-2.4h-11.6l-11.6-23.9l8-8l23.9,12.2v11.6c0,1.8,0.6,4.3,2.4,6.1l96.1,96.1l-4.9,4.9L219.2,301.9z
	 M315.9,421.2l28.2-28.2c1.8,0.6,4.3,2.4,4.9,4.9l-28.2,28.2C318.9,424.9,317.7,423.6,315.9,421.2z M400.3,503.2
	c-8,0-15.9-3.7-20.2-10.4l-44.7-56.9l23.3-23.3l56.9,44.7c6.1,4.9,10.4,12.2,10.4,20.2C426,491.6,415,503.2,400.3,503.2z"/>
</svg>
