<?xml version="1.0" encoding="utf-8"?>
<!-- Generator: Adobe Illustrator 18.1.1, SVG Export Plug-In . SVG Version: 6.00 Build 0)  -->
<svg version="1.1" id="Слой_1" xmlns="http://www.w3.org/2000/svg" xmlns:xlink="http://www.w3.org/1999/xlink" x="0px" y="0px"
	 viewBox="0 0 612 792" enable-background="new 0 0 612 792" xml:space="preserve">
<g>
	<path d="M612,743V375.8c0-11.6-9.2-20.2-20.2-20.2H204.4V253.4c0-56.3,45.9-102.2,102.2-102.2s102.2,45.9,102.2,102.2v61.2
		c0,11.6,9.2,20.2,20.2,20.2h81.4c11.6,0,20.2-9.2,20.2-20.2v-61.2c0-124.2-100.4-224.6-224.6-224.6S81.4,129.2,81.4,253.4v102.2
		H20.2C8.6,355.6,0,364.8,0,375.8V743c0,11.6,9.2,20.2,20.2,20.2h571C602.8,763.8,612,754.6,612,743z M122.4,253.4
		c0-101,82.6-183.6,183.6-183.6s183.6,82.6,183.6,183.6v41h-41v-41c0-78.3-64.3-142.6-142.6-142.6s-142.6,64.3-142.6,142.6v102.2
		h-41L122.4,253.4L122.4,253.4z M571,722.8H40.4V396.6h61.2H183h387.4v326.2L571,722.8L571,722.8z"/>
	<path d="M244.8,600.4v41c0,33.7,27.5,61.2,61.2,61.2s61.2-27.5,61.2-61.2v-41c25.1-19,41-49,41-81.4c0-56.3-45.9-102.2-102.2-102.2
		S203.8,462.7,203.8,519C203.8,550.8,219.1,580.8,244.8,600.4z M306,457.8c33.7,0,61.2,27.5,61.2,61.2c0,22-11.6,41.6-31.2,53.2
		c-6.7,3.1-9.8,10.4-9.8,17.7v51.4c0,11.6-9.2,20.2-20.2,20.2c-11.6,0-20.2-9.2-20.2-20.2V590c0-7.3-4.3-14.1-9.8-17.7
		c-19-10.4-31.2-31.2-31.2-53.2C244.8,485.3,272.3,457.8,306,457.8z"/>
	<circle cx="306" cy="519" r="20.2"/>
</g>
</svg>
