<?xml version="1.0" encoding="utf-8"?>
<!-- Generator: Adobe Illustrator 18.1.1, SVG Export Plug-In . SVG Version: 6.00 Build 0)  -->
<svg version="1.1" id="Слой_1" xmlns="http://www.w3.org/2000/svg" xmlns:xlink="http://www.w3.org/1999/xlink" x="0px" y="0px"
	 viewBox="0 0 612 792" enable-background="new 0 0 612 792" xml:space="preserve">
<g>
	<path d="M578.3,481h-408v-68c0-15.2-18.2-22.5-29.1-12.1l-136,136c-6.7,6.7-6.7,17.6,0,23.7l136,136c10.3,10.3,29.1,2.4,29.1-12.1
		v-68h407.4c9.7,0,17-7.3,17-17V498C595.3,488.9,587.4,481,578.3,481z M561.3,583h-408c-9.7,0-17,7.3-17,17v44.3L41,549l95.3-95.3
		V498c0,9.7,7.3,17,17,17h407.4v68H561.3z"/>
	<path d="M471.4,95.5c-10.9-10.3-29.1-2.4-29.1,12.1v68h-408c-9.7,0-17,7.3-17,17v102c0,9.7,7.3,17,17,17h407.4v68
		c0,15.2,18.2,22.5,29.1,12.1l136-136c6.7-6.7,6.7-17.6,0-23.7L471.4,95.5z M476.3,338.3V294c0-9.7-7.3-17-17-17h-408v-68h407.4
		c9.7,0,17-7.3,17-17v-44.3L571,243L476.3,338.3z"/>
</g>
</svg>
