<?xml version="1.0" encoding="utf-8"?>
<!-- Generator: Adobe Illustrator 18.1.1, SVG Export Plug-In . SVG Version: 6.00 Build 0)  -->
<svg version="1.1" id="Слой_1" xmlns="http://www.w3.org/2000/svg" xmlns:xlink="http://www.w3.org/1999/xlink" x="0px" y="0px"
	 viewBox="0 0 612 792" enable-background="new 0 0 612 792" xml:space="preserve">
<path d="M207.3,789.2c3.5,1.8,7,2.6,10.5,2.6c6.1,0,13.1-2.6,16.6-7.9l286.2-351.8c4.4-5.3,6.1-12.3,4.4-19.3
	c-1.8-7-7-12.3-13.1-14.9l-200.4-80.1L415.2,29.2c3.5-9.6-0.9-21-9.6-26.3c-9.6-5.3-21-2.6-28,5.3L91.4,359.5
	c-4.4,5.3-6.1,12.3-4.4,19.3c1.8,7,7,12.3,13.1,14.9l200.4,80.1L196.8,762.5C193.3,772.6,197.7,784,207.3,789.2z M349.1,468.9
	c4.4-11.4-1.8-23.6-12.3-28l-191.7-76.6l186.4-228.8l-66.9,187.3c-4.4,11.4,1.8,23.6,12.3,28l191.7,76.6L282.2,656.2L349.1,468.9z"
	/>
</svg>
