<?xml version="1.0" encoding="utf-8"?>
<!-- Generator: Adobe Illustrator 18.1.1, SVG Export Plug-In . SVG Version: 6.00 Build 0)  -->
<svg version="1.1" id="Слой_1" xmlns="http://www.w3.org/2000/svg" xmlns:xlink="http://www.w3.org/1999/xlink" x="0px" y="0px"
	 viewBox="0 0 612 792" enable-background="new 0 0 612 792" xml:space="preserve">
<g>
	<path d="M238.1,268.9h135.9c9.7,0,17-7.3,17-17V116.1c0-9.7-7.3-17-17-17H238.1c-9.7,0-17,7.3-17,17v34H119.2
		c-27.9,0-50.9,23-50.9,50.9v44.3l-21.8-21.8c-6.7-6.7-17.6-6.7-23.7,0c-6.7,6.7-6.7,17.6,0,23.7L73.7,298c6.7,6.7,17.6,6.7,23.7,0
		l50.9-50.9c6.7-6.7,6.7-17.6,0-23.7c-6.7-6.7-17.6-6.7-23.7,0l-22.4,21.8V201c0-9.7,7.3-17,17-17h101.9v67.9
		C221.1,261.7,228.4,268.9,238.1,268.9z M255.1,133.1h101.9V235H255.1V133.1z"/>
	<path d="M594.7,320.5h-34V218c0-27.9-23-50.9-50.9-50.9h-44.3l21.8-21.8c6.7-6.7,6.7-17.6,0-23.7c-6.7-6.7-17.6-6.7-23.7,0
		l-50.9,50.9c-6.7,6.7-6.7,17.6,0,23.7l50.9,50.9c6.7,6.7,17.6,6.7,23.7,0c6.7-6.7,6.7-17.6,0-23.7L465.5,201h44.3
		c9.7,0,17,7.3,17,17v101.9h-67.9c-9.7,0-17,7.3-17,17v135.9c0,9.7,7.3,17,17,17h135.9c9.7,0,17-7.3,17-17V336.9
		C611.7,327.8,604.4,320.5,594.7,320.5z M577.7,456.4H475.8V354.5h101.9V456.4z"/>
	<path d="M148.3,563.1c-6.7-6.7-17.6-6.7-23.7,0c-6.7,6.7-6.7,17.6,0,23.7l21.8,21.8h-44.3c-9.7,0-17-7.3-17-17V489.7h67.9
		c9.7,0,17-7.3,17-17V337.5c0-9.7-7.3-17-17-17H17.3c-9.7,0-17,7.3-17,17v135.9c0,9.7,7.3,17,17,17h34v101.9
		c0,27.9,23,50.9,50.9,50.9h44.3L124.6,665c-6.7,6.7-6.7,17.6,0,23.7c6.7,6.7,17.6,6.7,23.7,0l50.9-50.9c6.7-6.7,6.7-17.6,0-23.7
		L148.3,563.1z M33.7,354.5h101.9v101.9H33.7V354.5z"/>
	<path d="M538.9,512.2c-6.7-6.7-17.6-6.7-23.7,0l-50.9,50.9c-6.7,6.7-6.7,17.6,0,23.7c6.7,6.7,17.6,6.7,23.7,0l21.8-21.8v44.3
		c0,9.7-7.3,17-17,17H390.9v-67.9c0-9.7-7.3-17-17-17H238.1c-9.7,0-17,7.3-17,17v135.9c0,9.7,7.3,17,17,17h135.9c9.7,0,17-7.3,17-17
		v-34h101.9c27.9,0,50.9-23,50.9-50.9v-44.3l21.8,21.8c6.7,6.7,17.6,6.7,23.7,0c6.7-6.7,6.7-17.6,0-23.7L538.9,512.2z M356.9,677.1
		H255.1V575.2h101.9V677.1z"/>
</g>
</svg>
