<?xml version="1.0" encoding="utf-8"?>
<!-- Generator: Adobe Illustrator 18.1.1, SVG Export Plug-In . SVG Version: 6.00 Build 0)  -->
<svg version="1.1" id="Слой_1" xmlns="http://www.w3.org/2000/svg" xmlns:xlink="http://www.w3.org/1999/xlink" x="0px" y="0px"
	 viewBox="0 0 612 792" enable-background="new 0 0 612 792" xml:space="preserve">
<path d="M602.9,243c-5.5-2.4-11.6-2.4-16.5,0l-66.1,37.9l-51.4-29.3v-59.4l66.1-37.9c5.5-2.4,8-8,8-14.1s-2.4-11.6-7.3-14.7
	c-28.2-17.7-60.1-26.9-93.7-26.9c-30.6,0-60.6,8-86.9,23.3c-41.6,23.9-63,72.2-57.5,129.7c1.8,20.8-4.9,41-18.4,54.5L22.8,561.9
	c-14.1,14-22.7,34.2-22.7,54.4c0,20.2,8,40.4,22.6,54.5c14.1,14.1,34.3,22.6,54.5,22.6s40.4-8,54.5-22.6l232.6-232.6
	c11.6-11.6,26.9-17.7,43.5-17.7c6.7,0,14.1,1.2,20.8,3.7c34.3,11,68.5,8,96.7-8c56.9-32.4,90.6-93.6,86.3-159.1
	C610.9,251,607.8,246.1,602.9,243z M106,646.3c-0.6,0.6-0.6,1.2-1.2,1.8c-8,6.7-17.7,10.4-28.2,10.4C65,658.6,54,653.7,46,645.7
	s-12.9-19-12.9-30.6c0-10.4,4.3-20.2,10.4-28.2c0.6-0.6,1.2-0.6,1.8-1.2c8-8,19-12.2,30-12.2s22,4.3,30,12.2c8,8,12.2,19,12.2,30
	C117.6,626.7,114.6,638.4,106,646.3z M339.8,413.8L135.4,618.2c0-0.6,0-0.6,0-1.2c0-15.9-6.1-30.6-17.7-42.2
	c-11.6-11.6-25.7-17.7-42.2-17.7c-0.6,0-1.2,0-1.2,0L302,329.4c9.8-9.8,17.1-20.8,22-34.3c4.3,11,8.6,20.8,14.7,31.2
	c14.1,24.5,33,45.3,55.1,60.6C372.8,389.9,353.9,399.7,339.8,413.8z M507.5,386.8C483,400.3,453,399,427.9,388
	c-30-12.9-56.3-37.3-74.7-69.2c-12.9-22.6-20.2-46.5-23.3-70.4c0-1.8,0-4.3-0.6-6.1c0-1.2,0-1.8,0-3.7
	c-0.6-39.2,14.1-71.6,41.6-87.5c20.8-12.2,45.3-19,69.8-19c17.1,0,33,3.7,49,8.6l-47.7,27c-4.3,2.4-7.3,8.6-7.3,14.7v78.3
	c0,6.1,3.7,11.6,8.6,14.7l67.9,39.2c5.5,2.4,11.6,2.4,17.1,0l47.7-26.9C569.3,328.7,544.8,364.8,507.5,386.8
	C507.5,386.8,544.8,364.8,507.5,386.8z"/>
</svg>
